<?xml version="1.0" encoding="utf-8"?>
<svg xmlns="http://www.w3.org/2000/svg" viewBox="0 0 28 16" >
  <g id="Layer_1" transform="matrix(0.9999999999999999, 0, 0, 0.9999999999999999, -2.0000009536743173, -8.000001907348633)" style="enable-background:new 0 0 32 32">
    <g id="Visibility">
      <circle cx="16" cy="16" r="4" class="Black" style="fill: rgba(255, 177, 21, 0.514);"/>
    </g>
  </g>
  <g id="Layer_-2" transform="matrix(0.9999999999999999, 0, 0, 0.9999999999999999, -2.000000000000001, -8)" style="enable-background:new 0 0 32 32">
    <g id="Visibility-2">
      <path d="M16, 8C8, 8 2, 16 2, 16C2, 16 8, 24 16, 24C24, 24 30, 16 30, 16C30, 16 24, 8 16, 8zM16, 22C12.7, 22 10, 19.3 10, 16C10, 12.7 12.7, 10 16, 10C19.3, 10 22, 12.7 22, 16C22, 19.3 19.3, 22 16, 22z" class="Yellow" fill="#FFB115"/>
    </g>
  </g>
</svg>